<svg width="8" height="14" viewBox="0 0 8 14" fill="none" xmlns="http://www.w3.org/2000/svg">
    <path d="M0.337891 12.0088H1.8833V13.2905H2.71094V12.0088H3.76562V13.2905H4.58594V11.9941C6.52686 11.8696 7.66211 10.8296 7.66211 9.15967V9.14502C7.66211 7.82666 6.76123 6.87451 5.3623 6.7207V6.66211C6.38037 6.48633 7.16406 5.52686 7.16406 4.4502V4.43555C7.16406 3.02197 6.16064 2.04785 4.58594 1.90137V0.597656H3.76562V1.87939H2.71094V0.597656H1.8833V1.87939H0.337891V12.0088ZM1.94189 6.21533V3.19775H3.7583C4.92285 3.19775 5.56738 3.71777 5.56738 4.64795V4.6626C5.56738 5.66602 4.82031 6.21533 3.42871 6.21533H1.94189ZM1.94189 10.6904V7.46777H3.74365C5.28906 7.46777 6.00684 7.98047 6.00684 9.0498V9.06445C6.00684 10.1411 5.29639 10.6904 3.83887 10.6904H1.94189Z" fill="#8E8E93"/>
</svg>
