<svg width="22" height="19" viewBox="0 0 22 19" fill="none" xmlns="http://www.w3.org/2000/svg">
    <path d="M21.875 9.53906C21.875 9.83203 21.7461 10.1016 21.5117 10.3242L13.7305 18.0938C13.4961 18.3164 13.25 18.4219 12.9688 18.4219C12.3945 18.4219 11.9375 18 11.9375 17.4141C11.9375 17.1328 12.043 16.8516 12.2305 16.6758L14.8555 14.0039L18.8047 10.4062L15.9688 10.582H1.14453C0.535156 10.582 0.113281 10.1484 0.113281 9.53906C0.113281 8.92969 0.535156 8.49609 1.14453 8.49609H15.9688L18.793 8.67188L14.8555 5.07422L12.2305 2.40234C12.043 2.21484 11.9375 1.94531 11.9375 1.66406C11.9375 1.07812 12.3945 0.65625 12.9688 0.65625C13.25 0.65625 13.4961 0.75 13.7539 1.00781L21.5117 8.75391C21.7461 8.97656 21.875 9.24609 21.875 9.53906Z" fill="#6D28D9"/>
</svg>
