<svg width="24" height="24" viewBox="0 0 24 24" fill="none" xmlns="http://www.w3.org/2000/svg">
    <path d="M23 12C23 18.0751 18.0751 23 12 23C5.92487 23 1 18.0751 1 12C1 5.92487 5.92487 1 12 1C18.0751 1 23 5.92487 23 12Z" stroke="#8E8E93" stroke-width="2" stroke-linecap="round" stroke-linejoin="round"/>
    <path d="M13.4375 17.5C13.4375 18.2939 12.7939 18.9375 12 18.9375C11.2061 18.9375 10.5625 18.2939 10.5625 17.5C10.5625 16.7061 11.2061 16.0625 12 16.0625C12.7939 16.0625 13.4375 16.7061 13.4375 17.5Z" fill="#8E8E93" stroke="#8E8E93" stroke-width="0.125"/>
    <path d="M12 14V13.2222C12.5933 13.2222 13.1734 13.0398 13.6667 12.6979C14.1601 12.3561 14.5446 11.8702 14.7716 11.3017C14.9987 10.7332 15.0581 10.1077 14.9424 9.50416C14.8266 8.90067 14.5409 8.34632 14.1213 7.91122C13.7018 7.47613 13.1672 7.17982 12.5853 7.05978C12.0033 6.93974 11.4001 7.00135 10.8519 7.23682C10.3038 7.47229 9.83524 7.87105 9.50559 8.38267C9.17595 8.89429 9 9.49579 9 10.1111" stroke="#8E8E93" stroke-width="2" stroke-linecap="round" stroke-linejoin="round"/>
</svg>
