<svg width="16" height="17" viewBox="0 0 16 17" fill="none" xmlns="http://www.w3.org/2000/svg">
<path opacity="0.2" d="M12.4995 4V13.5C12.4995 13.6326 12.4468 13.7598 12.3531 13.8536C12.2593 13.9473 12.1321 14 11.9995 14H3.99951C3.8669 14 3.73973 13.9473 3.64596 13.8536C3.55219 13.7598 3.49951 13.6326 3.49951 13.5V4L12.4995 4Z" fill="white"/>
<path fill-rule="evenodd" clip-rule="evenodd" d="M2.49951 3.5L13.4995 3.5C13.7757 3.5 13.9995 3.72386 13.9995 4C13.9995 4.27614 13.7757 4.5 13.4995 4.5L2.49951 4.5C2.22337 4.5 1.99951 4.27615 1.99951 4C1.99951 3.72386 2.22337 3.5 2.49951 3.5Z" fill="white"/>
<path fill-rule="evenodd" clip-rule="evenodd" d="M6.5 6.5C6.77614 6.5 7 6.72386 7 7V11C7 11.2761 6.77614 11.5 6.5 11.5C6.22386 11.5 6 11.2761 6 11V7C6 6.72386 6.22386 6.5 6.5 6.5Z" fill="white"/>
<path fill-rule="evenodd" clip-rule="evenodd" d="M9.5 6.5C9.77614 6.5 10 6.72386 10 7V11C10 11.2761 9.77614 11.5 9.5 11.5C9.22386 11.5 9 11.2761 9 11V7C9 6.72386 9.22386 6.5 9.5 6.5Z" fill="white"/>
<path fill-rule="evenodd" clip-rule="evenodd" d="M3.49951 3.5C3.77565 3.5 3.99951 3.72386 3.99951 4V13.5H11.9995V4C11.9995 3.72386 12.2234 3.5 12.4995 3.5C12.7757 3.5 12.9995 3.72386 12.9995 4V13.5C12.9995 13.7652 12.8942 14.0196 12.7066 14.2071C12.5191 14.3946 12.2647 14.5 11.9995 14.5H3.99951C3.7343 14.5 3.47994 14.3946 3.29241 14.2071C3.10487 14.0196 2.99951 13.7652 2.99951 13.5V4C2.99951 3.72386 3.22337 3.5 3.49951 3.5Z" fill="white"/>
<path fill-rule="evenodd" clip-rule="evenodd" d="M5.43934 1.93934C5.72064 1.65804 6.10218 1.5 6.5 1.5H9.5C9.89782 1.5 10.2794 1.65804 10.5607 1.93934C10.842 2.22064 11 2.60217 11 3V4C11 4.27614 10.7761 4.5 10.5 4.5C10.2239 4.5 10 4.27614 10 4V3C10 2.86739 9.94732 2.74021 9.85355 2.64645C9.75979 2.55268 9.63261 2.5 9.5 2.5H6.5C6.36739 2.5 6.24022 2.55268 6.14645 2.64645C6.05268 2.74021 6 2.86739 6 3V4C6 4.27614 5.77614 4.5 5.5 4.5C5.22386 4.5 5 4.27614 5 4V3C5 2.60217 5.15804 2.22064 5.43934 1.93934Z" fill="white"/>
</svg>
