<svg width="16" height="16" viewBox="0 0 16 16" fill="none" xmlns="http://www.w3.org/2000/svg">
    <path d="M8 16C12.4104 16 16 12.4104 16 8C16 3.58965 12.418 0 8.00767 0C7.4861 0 7.17929 0.306807 7.17929 0.805369V3.53595C7.17929 3.96548 7.47843 4.2953 7.90796 4.2953C8.33749 4.2953 8.63663 3.96548 8.63663 3.53595V1.75647C11.8044 2.07862 14.2359 4.74784 14.2359 8C14.2359 11.4516 11.4669 14.2435 8 14.2435C4.53308 14.2435 1.7488 11.4516 1.75647 8C1.76414 6.54267 2.27037 5.18504 3.11409 4.12656C3.44391 3.66635 3.50527 3.21381 3.12943 2.83797C2.7536 2.47747 2.15532 2.51582 1.77181 3.02972C0.674976 4.39501 0 6.12848 0 8C0 12.4104 3.58965 16 8 16ZM9.2349 9.21956C9.88687 8.54458 9.75647 7.60115 8.98178 7.08725L5.18504 4.5024C4.67881 4.16491 4.19559 4.64813 4.53308 5.15436L7.11026 8.9511C7.63183 9.72579 8.56759 9.87152 9.2349 9.21956Z" fill="#FFAE00"/>
</svg>
