<svg width="1329" height="320" viewBox="0 0 1329 320" fill="none" xmlns="http://www.w3.org/2000/svg">
<path fill-rule="evenodd" clip-rule="evenodd" d="M89.6 120.008V146.832C93.928 143.704 100.08 139.976 107.56 137.416C115.392 134.744 124.864 133.312 135.2 135.408C145.592 137.52 156.152 143.056 166.296 153.224C174.128 161.072 181.36 164.528 187.536 165.792C193.76 167.064 199.624 166.248 204.88 164.44C210.184 162.608 214.696 159.808 217.928 157.384C219.528 156.192 220.76 155.128 221.568 154.392C221.968 154.024 222.264 153.744 222.44 153.568C222.528 153.48 222.584 153.424 222.616 153.392H222.624V153.376L228.152 147.552V120.016L158.864 80.0078L89.584 120.016L89.6 120.008Z" fill="white"/>
<path fill-rule="evenodd" clip-rule="evenodd" d="M183.688 184.592C173.352 182.48 162.84 176.936 152.704 166.784C144.88 158.952 137.616 155.488 131.376 154.224C125.08 152.944 119.112 153.76 113.76 155.592C108.36 157.432 103.76 160.248 100.456 162.68C98.824 163.88 97.56 164.944 96.736 165.688C96.32 166.056 96.024 166.344 95.84 166.52C95.752 166.608 95.688 166.664 95.664 166.696L95.648 166.712L89.592 172.976V200.016L158.872 240.016L228.16 200.016V173.688C223.944 176.704 218.144 180.168 211.144 182.584C203.376 185.272 193.968 186.704 183.68 184.6L183.688 184.592Z" fill="#FFAE00"/>
<path fill-rule="evenodd" clip-rule="evenodd" d="M176.84 0.903757C89.008 -8.39224 10.2 55.1918 0.904001 143.16C-8.392 230.992 55.192 309.8 143.16 319.096C230.992 328.392 309.8 264.808 319.096 176.84C328.392 89.0078 264.808 10.1998 176.84 0.903757ZM285.688 173.336C278.416 242.448 215.768 293.096 146.664 285.688C77.552 278.416 26.904 215.768 34.312 146.664C41.584 77.5518 104.232 26.9038 173.336 34.3118C242.448 41.5838 293.096 104.232 285.688 173.336V173.336Z" fill="#FFAE00"/>
<path d="M431 230.85V90.002H498.748C512.756 90.002 523.687 93.2191 531.541 99.6553C539.659 106.354 543.716 115.35 543.716 126.643C543.716 140.039 537.17 149.232 524.079 154.222V154.814C531.803 157.178 537.924 161.445 542.439 167.617C546.954 173.791 549.213 181.013 549.213 189.286C549.213 202.944 544.434 213.45 534.878 220.806C526.369 227.503 514.849 230.852 500.318 230.852H431V230.85ZM465.366 202.877H496.392C502.021 202.877 506.505 201.367 509.844 198.345C513.183 195.326 514.851 191.319 514.851 186.328C514.851 180.943 513.084 176.773 509.549 173.818C506.013 170.864 501.498 169.386 495.999 169.386H465.366V202.875V202.877ZM465.366 145.749H493.642C498.748 145.749 502.838 144.501 505.915 142.007C508.99 139.512 510.529 136.03 510.529 131.566C510.529 127.232 509.024 123.817 506.011 121.322C503.001 118.828 498.942 117.58 493.837 117.58H465.364V145.751L465.366 145.749ZM560.998 230.848V90H593.398V230.848H560.998ZM642.295 202.875C645.961 208.389 651.198 211.149 658.006 211.149C664.813 211.149 670.082 208.391 673.814 202.875C677.544 197.359 679.41 189.939 679.41 180.614C679.41 171.29 677.544 163.838 673.814 158.256C670.084 152.674 664.815 149.884 658.006 149.884C651.198 149.884 645.961 152.641 642.295 158.157C638.63 163.672 636.796 171.158 636.796 180.614C636.796 189.938 638.63 197.359 642.295 202.875ZM696.887 218.832C687.067 228.943 674.174 234 658.202 234C642.23 234 629.271 228.943 619.321 218.832C609.372 208.719 604.398 195.981 604.398 180.616C604.398 165.251 609.374 152.513 619.321 142.399C629.271 132.286 642.23 127.232 658.202 127.232C674.174 127.232 687.102 132.286 696.985 142.399C706.869 152.513 711.812 165.251 711.812 180.616C711.812 195.981 706.836 208.721 696.887 218.832ZM771.508 234C755.537 234 742.642 228.943 732.824 218.832C723.005 208.719 718.096 195.981 718.096 180.616C718.096 165.251 722.94 152.513 732.627 142.399C742.315 132.286 755.013 127.232 770.723 127.232C784.076 127.232 795.008 130.776 803.517 137.868C812.026 144.959 817.002 154.285 818.44 165.841H787.61C785.385 155.86 779.886 150.87 771.115 150.87C764.307 150.87 759.168 153.497 755.7 158.749C752.231 164.003 750.496 171.292 750.496 180.616C750.496 189.809 752.263 196.999 755.798 202.186C759.334 207.373 764.439 209.966 771.115 209.966C781.326 209.966 787.152 204.188 788.592 192.632H819.225C818.832 204.582 814.283 214.464 805.577 222.278C796.871 230.092 785.515 234 771.506 234H771.508ZM829.438 230.848V90H861.053V164.068L890.902 129.989H927.819L892.472 167.811L931.941 230.848H894.827L870.672 189.677L861.049 199.92V230.848H829.434H829.438ZM977.305 232.03C967.094 232.03 959.206 229.962 953.642 225.825C948.078 221.688 945.296 214.498 945.296 204.255V150.083H931.943V129.991H945.296V98.0783H976.52V129.991H994.782V150.083H976.52V197.361C976.52 201.038 977.468 203.599 979.367 205.042C981.265 206.487 984.047 207.209 987.713 207.209C988.759 207.209 990.134 207.176 991.836 207.111C993.538 207.045 994.52 207.012 994.782 207.012V230.453C991.116 231.503 985.291 232.028 977.305 232.028V232.03ZM1037.98 233.41C1027.64 233.41 1019.33 230.718 1013.04 225.334C1006.76 219.949 1003.62 212.398 1003.62 202.68C1003.62 192.436 1007.02 184.984 1013.83 180.322C1020.64 175.66 1030.06 172.541 1042.1 170.964C1051.92 169.782 1058.63 168.436 1062.23 166.926C1065.83 165.416 1067.63 163.018 1067.63 159.736C1067.63 152.513 1063.05 148.901 1053.89 148.901C1044.07 148.901 1038.63 153.235 1037.59 161.901H1008.13C1008.53 151.92 1012.62 143.647 1020.41 137.08C1028.19 130.514 1039.29 127.232 1053.69 127.232C1068.09 127.232 1078.96 129.989 1086.29 135.505C1094.8 141.679 1099.05 151.265 1099.05 164.266V215.09C1099.05 223.101 1100.23 227.893 1102.59 229.47V230.85H1071.56C1070.25 229.013 1069.14 225.268 1068.22 219.622H1067.83C1061.42 228.813 1051.47 233.412 1037.98 233.412L1037.98 233.41ZM1048.19 212.923C1054.22 212.923 1059.09 211.249 1062.82 207.9C1066.55 204.553 1068.42 200.185 1068.42 194.801V182.783C1065.28 184.358 1059.78 186.132 1051.92 188.102C1045.51 189.547 1040.99 191.254 1038.37 193.224C1035.76 195.193 1034.45 198.018 1034.45 201.695C1034.45 209.179 1039.03 212.923 1048.19 212.923ZM1114.57 230.85V129.991H1145.4V143.781H1145.99C1153.71 132.618 1164.05 127.036 1177.01 127.036C1187.88 127.036 1196.42 130.549 1202.64 137.576C1208.86 144.602 1211.97 153.827 1211.97 165.253V230.85H1179.96V171.752C1179.96 166.238 1178.62 161.87 1175.93 158.653C1173.25 155.436 1169.35 153.827 1164.25 153.827C1159.01 153.827 1154.76 155.797 1151.48 159.736C1148.21 163.676 1146.58 168.797 1146.58 175.101V230.85H1114.57ZM1226.5 230.85V90.002H1258.11V164.07L1287.96 129.991H1324.88L1289.53 167.812L1329 230.85H1291.89L1267.73 189.679L1258.11 199.922V230.85H1226.49H1226.5Z" fill="white"/>
</svg>
