<svg width="412" height="100" viewBox="0 0 412 100" fill="none" xmlns="http://www.w3.org/2000/svg">
<path d="M133.563 72.1406V28.1256H154.557C158.898 28.1256 162.286 29.131 164.72 31.1423C167.235 33.2356 168.493 36.0469 168.493 39.5761C168.493 43.7621 166.464 46.6351 162.407 48.1943V48.3793C164.801 49.1182 166.698 50.4517 168.097 52.3803C169.496 54.3096 170.196 56.5664 170.196 59.1519C170.196 63.42 168.715 66.7031 165.754 69.0019C163.117 71.0946 159.547 72.1412 155.044 72.1412H133.563V72.1406ZM144.213 63.3991H153.828C155.572 63.3991 156.961 62.9272 157.996 61.9829C159.031 61.0393 159.548 59.7872 159.548 58.2274C159.548 56.5448 159 55.2416 157.905 54.3183C156.809 53.3949 155.41 52.933 153.706 52.933H144.213V63.3984V63.3991ZM144.213 45.5465H152.975C154.557 45.5465 155.825 45.1567 156.778 44.3771C157.731 43.5974 158.208 42.5095 158.208 41.1143C158.208 39.7599 157.742 38.6928 156.808 37.9132C155.875 37.1336 154.618 36.7438 153.036 36.7438H144.212V45.5471L144.213 45.5465ZM173.848 72.14V28.125H183.889V72.14H173.848ZM199.041 63.3984C200.177 65.1217 201.8 65.984 203.91 65.984C206.019 65.984 207.652 65.1223 208.809 63.3984C209.965 61.6746 210.543 59.3561 210.543 56.4418C210.543 53.5282 209.965 51.1992 208.809 49.455C207.653 47.7107 206.02 46.8386 203.91 46.8386C201.8 46.8386 200.177 47.7002 199.041 49.4241C197.906 51.1474 197.337 53.4868 197.337 56.4418C197.337 59.3555 197.906 61.6746 199.041 63.3984ZM215.959 68.3851C212.916 71.5448 208.92 73.125 203.971 73.125C199.021 73.125 195.005 71.5448 191.922 68.3851C188.839 65.2247 187.297 61.244 187.297 56.4424C187.297 51.6408 188.839 47.6602 191.922 44.4998C195.005 41.3394 199.021 39.7599 203.971 39.7599C208.92 39.7599 212.927 41.3394 215.989 44.4998C219.052 47.6602 220.584 51.6408 220.584 56.4424C220.584 61.244 219.042 65.2253 215.959 68.3851ZM239.083 73.125C234.134 73.125 230.138 71.5448 227.095 68.3851C224.052 65.2247 222.531 61.244 222.531 56.4424C222.531 51.6408 224.032 47.6602 227.035 44.4998C230.037 41.3394 233.972 39.7599 238.84 39.7599C242.978 39.7599 246.366 40.8676 249.003 43.0837C251.639 45.2998 253.181 48.214 253.627 51.8252H244.073C243.384 48.7062 241.679 47.147 238.961 47.147C236.852 47.147 235.259 47.9679 234.184 49.6092C233.11 51.251 232.572 53.5288 232.572 56.4424C232.572 59.3154 233.119 61.5623 234.215 63.1832C235.311 64.8041 236.893 65.6145 238.961 65.6145C242.126 65.6145 243.931 63.8086 244.377 60.1974H253.87C253.748 63.932 252.339 67.0202 249.641 69.462C246.943 71.9038 243.424 73.125 239.083 73.125H239.083ZM257.035 72.14V28.125H266.833V51.2714L276.082 40.6215H287.523L276.569 52.4408L288.8 72.14H277.299L269.813 59.2741L266.831 62.4751V72.14H257.034H257.035ZM302.858 72.5095C299.693 72.5095 297.249 71.8631 295.525 70.5703C293.801 69.2776 292.939 67.0306 292.939 63.8296V46.9009H288.801V40.6221H292.939V30.6495H302.614V40.6221H308.274V46.9009H302.614V61.6752C302.614 62.8242 302.908 63.6248 303.497 64.0757C304.085 64.5271 304.947 64.7529 306.083 64.7529C306.407 64.7529 306.834 64.7424 307.361 64.722C307.888 64.7017 308.193 64.6912 308.274 64.6912V72.0167C307.138 72.3448 305.332 72.5088 302.858 72.5088V72.5095ZM321.661 72.9406C318.456 72.9406 315.88 72.0993 313.933 70.4167C311.986 68.7342 311.012 66.3744 311.012 63.3374C311.012 60.1363 312.067 57.8074 314.176 56.3505C316.286 54.8937 319.207 53.9192 322.939 53.4264C325.982 53.057 328.06 52.6363 329.176 52.1645C330.292 51.6926 330.85 50.9433 330.85 49.9176C330.85 47.6602 329.43 46.5315 326.59 46.5315C323.547 46.5315 321.863 47.8859 321.539 50.5942H312.411C312.533 47.4751 313.801 44.8896 316.214 42.8376C318.628 40.7856 322.066 39.7599 326.529 39.7599C330.992 39.7599 334.359 40.6215 336.631 42.3454C339.268 44.2747 340.586 47.2704 340.586 51.3331V67.2157C340.586 69.7192 340.952 71.2167 341.681 71.7095V72.1406H332.067C331.661 71.5664 331.316 70.3964 331.032 68.6318H330.911C328.923 71.5041 325.84 72.9412 321.661 72.9412L321.661 72.9406ZM324.826 66.5385C326.692 66.5385 328.203 66.0154 329.359 64.9688C330.515 63.9227 331.093 62.5578 331.093 60.8752V57.1197C330.12 57.6118 328.416 58.1663 325.982 58.7819C323.994 59.2334 322.594 59.7669 321.783 60.3824C320.971 60.9979 320.566 61.8806 320.566 63.0296C320.566 65.3684 321.986 66.5385 324.826 66.5385ZM345.394 72.1406V40.6221H354.948V44.9315H355.131C357.524 41.4431 360.729 39.6988 364.746 39.6988C368.113 39.6988 370.76 40.7967 372.687 42.9924C374.614 45.1881 375.578 48.0709 375.578 51.6414V72.1406H365.658V53.6725C365.658 51.9492 365.243 50.5843 364.411 49.5789C363.579 48.5736 362.372 48.0709 360.79 48.0709C359.167 48.0709 357.849 48.6865 356.834 49.9176C355.82 51.1486 355.313 52.7492 355.313 54.7192V72.1406H345.394ZM380.08 72.1406V28.1256H389.877V51.272L399.127 40.6221H410.568L399.614 52.4414L411.845 72.1406H400.344L392.858 59.2747L389.876 62.4757V72.1406H380.079H380.08Z" fill="white"/>
<path fill-rule="evenodd" clip-rule="evenodd" d="M65.8347 56.91C64.2647 57.43 62.4147 57.82 60.3847 57.82C56.6047 57.82 52.2247 56.47 47.8747 52.12C44.2047 48.45 40.3347 47.35 36.0547 48.78C32.7647 49.88 30.4847 52.09 30.4647 52.12L28.3447 54.24V62.5L49.9947 75L71.6447 62.5V53.87C70.2547 54.88 68.2547 56.1 65.8247 56.91H65.8347Z" fill="#FFAE00"/>
<path fill-rule="evenodd" clip-rule="evenodd" d="M34.1645 43.09C38.6745 41.59 45.4445 41.2 52.1245 47.88C55.7945 51.55 59.6645 52.65 63.9445 51.22C67.2345 50.12 69.5145 47.91 69.5345 47.88L71.6545 45.76V37.5L50.0045 25L28.3545 37.5V46.12C29.7445 45.11 31.7445 43.9 34.1645 43.09V43.09Z" fill="white"/>
<path fill-rule="evenodd" clip-rule="evenodd" d="M55.2625 0.282454C27.815 -2.62255 3.18745 17.2475 0.282454 44.7375C-2.62255 72.185 17.2475 96.8125 44.7375 99.7175C72.185 102.622 96.8125 82.7525 99.7175 55.2625C102.622 27.815 82.7525 3.18745 55.2625 0.282454ZM89.2775 54.1675C87.005 75.765 67.4275 91.5925 45.8325 89.2775C24.235 87.005 8.40745 67.4275 10.7225 45.8325C12.995 24.235 32.5725 8.40745 54.1675 10.7225C75.765 12.995 91.5925 32.5725 89.2775 54.1675V54.1675Z" fill="#FFAE00"/>
</svg>
