<svg width="400" height="97" viewBox="0 0 400 97" fill="none" xmlns="http://www.w3.org/2000/svg">
    <path d="M124.87 69.4811V26.1808H145.626C149.918 26.1808 153.267 27.1698 155.674 29.1485C158.161 31.2078 159.404 33.9734 159.404 37.4453C159.404 41.5634 157.398 44.3897 153.387 45.9236V46.1056C155.754 46.8325 157.629 48.1443 159.012 50.0417C160.396 51.9396 161.088 54.1598 161.088 56.7033C161.088 60.9021 159.624 64.1319 156.696 66.3933C154.089 68.4521 150.559 69.4817 146.107 69.4817H124.87V69.4811ZM135.399 60.8815H144.905C146.629 60.8815 148.003 60.4173 149.026 59.4884C150.049 58.56 150.56 57.3283 150.56 55.7938C150.56 54.1385 150.019 52.8565 148.936 51.9481C147.852 51.0398 146.469 50.5853 144.784 50.5853H135.399V60.8809V60.8815ZM135.399 43.3188H144.062C145.626 43.3188 146.879 42.9353 147.822 42.1683C148.764 41.4014 149.236 40.3311 149.236 38.9586C149.236 37.6261 148.775 36.5764 147.852 35.8095C146.929 35.0425 145.686 34.6591 144.122 34.6591H135.398V43.3194L135.399 43.3188ZM164.699 69.4805V26.1802H174.625V69.4805H164.699ZM189.607 60.8809C190.73 62.5762 192.334 63.4244 194.42 63.4244C196.506 63.4244 198.12 62.5768 199.263 60.8809C200.406 59.185 200.978 56.9042 200.978 54.0372C200.978 51.1709 200.406 48.8797 199.263 47.1638C198.12 45.4479 196.506 44.5899 194.42 44.5899C192.334 44.5899 190.73 45.4376 189.607 47.1335C188.484 48.8288 187.922 51.1302 187.922 54.0372C187.922 56.9036 188.484 59.185 189.607 60.8809ZM206.332 65.7865C203.324 68.895 199.374 70.4495 194.48 70.4495C189.587 70.4495 185.616 68.895 182.568 65.7865C179.519 62.6775 177.996 58.7615 177.996 54.0378C177.996 49.3142 179.52 45.3981 182.568 42.2891C185.616 39.18 189.587 37.6261 194.48 37.6261C199.374 37.6261 203.335 39.18 206.362 42.2891C209.391 45.3981 210.905 49.3142 210.905 54.0378C210.905 58.7615 209.381 62.6781 206.332 65.7865ZM229.195 70.4495C224.302 70.4495 220.351 68.895 217.343 65.7865C214.334 62.6775 212.83 58.7615 212.83 54.0378C212.83 49.3142 214.314 45.3981 217.283 42.2891C220.251 39.18 224.141 37.6261 228.954 37.6261C233.046 37.6261 236.395 38.7159 239.002 40.896C241.609 43.0761 243.133 45.943 243.574 49.4956H234.128C233.447 46.4272 231.762 44.8933 229.074 44.8933C226.989 44.8933 225.414 45.7009 224.352 47.3155C223.289 48.9307 222.757 51.1715 222.757 54.0378C222.757 56.8641 223.298 59.0746 224.382 60.6691C225.465 62.2637 227.029 63.061 229.074 63.061C232.203 63.061 233.988 61.2844 234.429 57.7318H243.815C243.694 61.4057 242.3 64.4438 239.633 66.846C236.966 69.2481 233.486 70.4495 229.194 70.4495H229.195ZM246.944 69.4805V26.1802H256.63V48.9507L265.775 38.4738H277.086L266.256 50.1012L278.349 69.4805H266.977L259.577 56.8235L256.629 59.9726V69.4805H246.942H246.944ZM292.247 69.844C289.119 69.844 286.702 69.2081 284.997 67.9363C283.293 66.6645 282.44 64.4541 282.44 61.305V44.6512H278.349V38.4744H282.44V28.6637H292.007V38.4744H297.602V44.6512H292.007V59.1856C292.007 60.316 292.297 61.1036 292.879 61.5471C293.461 61.9913 294.313 62.2133 295.436 62.2133C295.757 62.2133 296.178 62.203 296.699 62.183C297.221 62.163 297.522 62.1526 297.602 62.1526V69.3592C296.479 69.682 294.694 69.8434 292.247 69.8434V69.844ZM310.838 70.2681C307.669 70.2681 305.122 69.4405 303.197 67.7852C301.272 66.13 300.309 63.8085 300.309 60.8208C300.309 57.6717 301.352 55.3806 303.437 53.9474C305.523 52.5142 308.411 51.5556 312.101 51.0708C315.109 50.7073 317.164 50.2935 318.267 49.8293C319.37 49.3651 319.922 48.6279 319.922 47.6189C319.922 45.3981 318.518 44.2878 315.71 44.2878C312.702 44.2878 311.037 45.6202 310.717 48.2845H301.692C301.813 45.2161 303.066 42.6726 305.453 40.6539C307.839 38.6352 311.238 37.6261 315.651 37.6261C320.062 37.6261 323.392 38.4738 325.638 40.1697C328.245 42.0676 329.549 45.0147 329.549 49.0114V64.6361C329.549 67.099 329.91 68.5722 330.631 69.057V69.4811H321.125C320.724 68.9162 320.383 67.7652 320.103 66.0293H319.982C318.017 68.8549 314.969 70.2687 310.837 70.2687L310.838 70.2681ZM313.966 63.9699C315.812 63.9699 317.305 63.4554 318.449 62.4257C319.592 61.3966 320.163 60.0539 320.163 58.3986V54.704C319.2 55.1882 317.516 55.7337 315.109 56.3393C313.144 56.7834 311.76 57.3083 310.958 57.9138C310.156 58.5194 309.755 59.3876 309.755 60.518C309.755 62.8189 311.159 63.9699 313.966 63.9699ZM334.302 69.4811V38.4744H343.747V42.7138H343.928C346.295 39.282 349.463 37.5661 353.434 37.5661C356.763 37.5661 359.381 38.6461 361.286 40.8062C363.191 42.9662 364.143 45.8022 364.143 49.3148V69.4811H354.337V51.3129C354.337 49.6176 353.926 48.2748 353.103 47.2858C352.281 46.2968 351.088 45.8022 349.523 45.8022C347.919 45.8022 346.615 46.4078 345.612 47.6189C344.61 48.83 344.108 50.4045 344.108 52.3425V69.4811H334.302ZM368.595 69.4811V26.1808H378.281V48.9513L387.426 38.4744H398.737L387.907 50.1018L400 69.4811H388.629L381.228 56.8241L378.28 59.9732V69.4811H368.594H368.595Z" fill="white"/>
    <path d="M46.614 2.90578C58.8181 9.99701 71.0211 17.0664 83.2258 24.1594V72.4704C69.3549 80.5324 55.4847 88.5696 41.6126 96.6298C27.7405 88.569 13.8709 80.5331 0 72.4704V24.1594C13.8709 16.0974 27.7411 8.06083 41.6126 0L46.6146 2.90578H46.614ZM41.612 13.2019C31.5363 19.056 21.5384 24.8997 11.4639 30.7549V65.8749C21.5384 71.7302 31.5369 77.5739 41.612 83.4279C51.6877 77.5733 61.6862 71.7302 71.7607 65.8749V30.7549C61.6856 24.8991 51.6877 19.056 41.612 13.2019ZM41.612 27.3437L23.6066 37.8273V58.8025L41.612 69.2861L59.618 58.8025V37.8273L41.612 27.3437ZM43.5934 33.0958V45.1H51.1512L39.6312 63.534V51.5292H32.0734L43.5934 33.0952V33.0958Z" fill="#F7931A"/>
</svg>
