<svg width="120" height="56" viewBox="0 0 120 56" fill="none" xmlns="http://www.w3.org/2000/svg">
    <path d="M37.4609 20.8443V7.85416H43.6879C44.9755 7.85416 45.9802 8.15086 46.7021 8.74446C47.4483 9.36226 47.8211 10.1919 47.8211 11.2335C47.8211 12.4689 47.2195 13.3168 46.0162 13.777V13.8316C46.7262 14.0497 47.2888 14.4432 47.7038 15.0124C48.1188 15.5818 48.3264 16.2479 48.3264 17.0109C48.3264 18.2706 47.8871 19.2395 47.0088 19.9179C46.2267 20.5355 45.1679 20.8444 43.8322 20.8444H37.4609V20.8443ZM40.6196 18.2644H43.4714C43.9888 18.2644 44.401 18.1251 44.7078 17.8464C45.0147 17.5679 45.1681 17.1984 45.1681 16.7381C45.1681 16.2415 45.0057 15.8569 44.6807 15.5844C44.3557 15.3119 43.9407 15.1755 43.4353 15.1755H40.6196V18.2642V18.2644ZM40.6196 12.9955H43.2186C43.6879 12.9955 44.0639 12.8805 44.3467 12.6504C44.6294 12.4203 44.7708 12.0992 44.7708 11.6875C44.7708 11.2878 44.6324 10.9728 44.3556 10.7428C44.0789 10.5127 43.7058 10.3976 43.2365 10.3976H40.6195V12.9957L40.6196 12.9955ZM49.4096 20.8441V7.85397H52.3877V20.8441H49.4096ZM56.882 18.2642C57.2189 18.7728 57.7003 19.0272 58.326 19.0272C58.9517 19.0272 59.436 18.773 59.779 18.2642C60.1219 17.7554 60.2934 17.0712 60.2934 16.2111C60.2934 15.3512 60.1219 14.6638 59.779 14.1491C59.4362 13.6343 58.9519 13.3769 58.326 13.3769C57.7003 13.3769 57.2189 13.6312 56.882 14.14C56.5451 14.6486 56.3766 15.339 56.3766 16.2111C56.3766 17.071 56.5451 17.7554 56.882 18.2642V18.2642ZM61.8997 19.7359C60.9972 20.6684 59.8121 21.1348 58.3441 21.1348C56.8761 21.1348 55.6849 20.6684 54.7704 19.7359C53.8559 18.8032 53.3987 17.6284 53.3987 16.2113C53.3987 14.7942 53.8561 13.6194 54.7704 12.6866C55.6849 11.7539 56.8761 11.2878 58.3441 11.2878C59.8121 11.2878 61.0004 11.7539 61.9088 12.6866C62.8173 13.6194 63.2716 14.7942 63.2716 16.2113C63.2716 17.6284 62.8142 18.8034 61.8997 19.7359ZM68.7586 21.1348C67.2905 21.1348 66.1053 20.6684 65.2029 19.7359C64.3004 18.8032 63.8492 17.6284 63.8492 16.2113C63.8492 14.7942 64.2944 13.6194 65.1848 12.6866C66.0753 11.7539 67.2424 11.2878 68.6864 11.2878C69.9137 11.2878 70.9185 11.6147 71.7006 12.2687C72.4827 12.9227 72.9401 13.7828 73.0723 14.8486H70.2385C70.034 13.9281 69.5286 13.4679 68.7224 13.4679C68.0967 13.4679 67.6243 13.7102 67.3055 14.1946C66.9867 14.6791 66.8272 15.3514 66.8272 16.2113C66.8272 17.0592 66.9896 17.7223 67.3146 18.2007C67.6395 18.679 68.1088 18.9182 68.7224 18.9182C69.6609 18.9182 70.1964 18.3852 70.3288 17.3195H73.1444C73.1082 18.4216 72.6901 19.3331 71.8899 20.0537C71.0897 20.7744 70.0459 21.1348 68.7584 21.1348H68.7586ZM74.0831 20.8441V7.85397H76.989V14.6851L79.7325 11.5421H83.1258L79.8768 15.0303L83.5046 20.8441H80.0933L77.8731 17.047L76.9887 17.9917V20.8441H74.0828H74.0831ZM87.6742 20.9531C86.7356 20.9531 86.0107 20.7623 85.4993 20.3808C84.9878 19.9993 84.7321 19.3361 84.7321 18.3914V13.3953H83.5048V11.5422H84.7321V8.59902H87.602V11.5422H89.2806V13.3953H87.602V17.7556C87.602 18.0947 87.6892 18.331 87.8637 18.464C88.0382 18.5973 88.2939 18.6639 88.6308 18.6639C88.727 18.6639 88.8534 18.6608 89.0099 18.6548C89.1663 18.6488 89.2565 18.6457 89.2806 18.6457V20.8077C88.9437 20.9045 88.4082 20.9529 87.6742 20.9529V20.9531ZM93.2514 21.0803C92.3008 21.0803 91.5367 20.8321 90.9591 20.3355C90.3815 19.8389 90.0927 19.1425 90.0927 18.2462C90.0927 17.3014 90.4056 16.6141 91.0313 16.1841C91.657 15.7542 92.5234 15.4666 93.6303 15.3211C94.5328 15.2121 95.1493 15.088 95.4802 14.9487C95.8112 14.8095 95.9766 14.5883 95.9766 14.2856C95.9766 13.6194 95.5555 13.2862 94.7131 13.2862C93.8106 13.2862 93.3113 13.686 93.2151 14.4853H90.5077C90.5439 13.5648 90.9199 12.8017 91.6358 12.1961C92.3517 11.5905 93.3715 11.2878 94.6952 11.2878C96.0188 11.2878 97.0176 11.5421 97.6914 12.0508C98.4735 12.6202 98.8646 13.5043 98.8646 14.7033V19.3908C98.8646 20.1296 98.9729 20.5716 99.1894 20.717V20.8443H96.3376C96.2173 20.6748 96.115 20.3295 96.0309 19.8087H95.9947C95.4052 20.6564 94.4907 21.0805 93.2512 21.0805L93.2514 21.0803ZM94.19 19.1909C94.7435 19.1909 95.1916 19.0365 95.5347 18.7276C95.8775 18.4189 96.049 18.0161 96.049 17.5195V16.4111C95.7602 16.5564 95.2547 16.72 94.5328 16.9017C93.9431 17.0349 93.5281 17.1924 93.2874 17.3741C93.0467 17.5557 92.9265 17.8162 92.9265 18.1553C92.9265 18.8456 93.3476 19.1909 94.19 19.1909V19.1909ZM100.291 20.8443V11.5422H103.124V12.8141H103.179C103.888 11.7845 104.839 11.2697 106.03 11.2697C107.029 11.2697 107.814 11.5937 108.386 12.2418C108.957 12.8898 109.243 13.7406 109.243 14.7944V20.8443H106.301V15.3938C106.301 14.8852 106.178 14.4824 105.931 14.1857C105.684 13.8889 105.326 13.7406 104.857 13.7406C104.376 13.7406 103.985 13.9223 103.684 14.2856C103.383 14.6489 103.233 15.1213 103.233 15.7027V20.8443H100.291ZM110.579 20.8443V7.85416H113.484V14.6853L116.228 11.5422H119.621L116.372 15.0304L120 20.8443H116.589L114.369 17.0471L113.484 17.9919V20.8443H110.578H110.579Z" fill="white"/>
    <path d="M13.9842 0.871734C17.6454 2.9991 21.3063 5.11992 24.9677 7.24783V21.7411C20.8065 24.1597 16.6454 26.5709 12.4838 28.9889C8.32216 26.5707 4.16126 24.1599 0 21.7411V7.24783C4.16126 4.82922 8.32234 2.41825 12.4838 0L13.9844 0.871734H13.9842ZM12.4836 3.96058C9.46089 5.71679 6.46152 7.4699 3.43917 9.22648V19.7625C6.46152 21.519 9.46107 23.2722 12.4836 25.0284C15.5063 23.272 18.5059 21.519 21.5282 19.7625V9.22648C18.5057 7.46972 15.5063 5.71679 12.4836 3.96058V3.96058ZM12.4836 8.20311L7.08197 11.3482V17.6407L12.4836 20.7858L17.8854 17.6407V11.3482L12.4836 8.20311V8.20311ZM13.078 9.92874V13.53H15.3454L11.8894 19.0602V15.4588H9.62202L13.078 9.92856V9.92874Z" fill="#F7931A"/>
    <path opacity="0.6" d="M24.9085 53.214C23.8685 53.214 23.1035 52.819 22.6135 52.029H22.5835V52.989H20.6185V42.264H22.6585V46.224H22.7035C23.1935 45.464 23.9085 45.084 24.8485 45.084C25.8185 45.084 26.6135 45.464 27.2335 46.224C27.8535 46.974 28.1635 47.949 28.1635 49.149C28.1635 50.389 27.8635 51.379 27.2635 52.119C26.6635 52.849 25.8785 53.214 24.9085 53.214ZM24.4585 51.504C24.9785 51.504 25.3785 51.299 25.6585 50.889C25.9485 50.479 26.0935 49.899 26.0935 49.149C26.0935 48.409 25.9435 47.824 25.6435 47.394C25.3535 46.954 24.9335 46.734 24.3835 46.734C23.2035 46.734 22.6135 47.554 22.6135 49.194C22.6135 49.904 22.7785 50.469 23.1085 50.889C23.4385 51.299 23.8885 51.504 24.4585 51.504ZM29.0599 55.509V53.904H29.7799C30.5399 53.904 30.9199 53.554 30.9199 52.854C30.9199 52.514 30.7249 51.819 30.3349 50.769L28.2649 45.294H30.4099L31.5499 48.759L32.0449 50.439H32.0749C32.2149 49.789 32.3649 49.229 32.5249 48.759L33.6049 45.294H35.6599L32.9749 53.184C32.6749 54.064 32.3349 54.669 31.9549 54.999C31.5849 55.339 31.0199 55.509 30.2599 55.509H29.0599ZM43.1904 53.229C41.7404 53.229 40.6154 52.924 39.8154 52.314C39.0154 51.694 38.5954 50.814 38.5554 49.674H40.6854C40.7554 50.314 40.9804 50.774 41.3604 51.054C41.7504 51.334 42.3304 51.474 43.1004 51.474C43.7104 51.474 44.2104 51.364 44.6004 51.144C44.9904 50.914 45.1854 50.564 45.1854 50.094C45.1854 49.924 45.1604 49.774 45.1104 49.644C45.0704 49.504 44.9804 49.384 44.8404 49.284C44.7004 49.174 44.5804 49.089 44.4804 49.029C44.3804 48.959 44.1954 48.889 43.9254 48.819C43.6554 48.739 43.4504 48.684 43.3104 48.654C43.1704 48.614 42.9104 48.549 42.5304 48.459C42.0704 48.349 41.6904 48.254 41.3904 48.174C41.1004 48.094 40.7754 47.969 40.4154 47.799C40.0654 47.629 39.7854 47.444 39.5754 47.244C39.3754 47.034 39.2054 46.764 39.0654 46.434C38.9254 46.094 38.8554 45.709 38.8554 45.279C38.8554 44.249 39.2304 43.459 39.9804 42.909C40.7404 42.349 41.7354 42.069 42.9654 42.069C44.1854 42.069 45.1604 42.359 45.8904 42.939C46.6204 43.519 47.0254 44.344 47.1055 45.414H45.0204C44.9604 44.894 44.7404 44.494 44.3604 44.214C43.9904 43.934 43.5204 43.794 42.9504 43.794C42.3604 43.794 41.8904 43.909 41.5404 44.139C41.1904 44.369 41.0154 44.674 41.0154 45.054C41.0154 45.464 41.1854 45.764 41.5254 45.954C41.8754 46.144 42.4854 46.334 43.3554 46.524C43.8754 46.634 44.3004 46.739 44.6304 46.839C44.9604 46.929 45.3154 47.064 45.6954 47.244C46.0854 47.414 46.3854 47.604 46.5954 47.814C46.8154 48.024 46.9954 48.304 47.1354 48.654C47.2854 48.994 47.3604 49.389 47.3604 49.839C47.3604 50.899 46.9754 51.729 46.2054 52.329C45.4354 52.929 44.4304 53.229 43.1904 53.229ZM48.513 55.509V53.904H49.233C49.993 53.904 50.373 53.554 50.373 52.854C50.373 52.514 50.178 51.819 49.788 50.769L47.718 45.294H49.863L51.003 48.759L51.498 50.439H51.528C51.668 49.789 51.818 49.229 51.978 48.759L53.058 45.294H55.113L52.428 53.184C52.128 54.064 51.788 54.669 51.408 54.999C51.038 55.339 50.473 55.509 49.713 55.509H48.513ZM57.799 45.294V46.344H57.844C58.374 45.504 59.134 45.084 60.124 45.084C60.914 45.084 61.554 45.354 62.044 45.894C62.534 46.424 62.779 47.114 62.779 47.964V52.989H60.739V48.264C60.739 47.844 60.619 47.504 60.379 47.244C60.149 46.984 59.824 46.854 59.404 46.854C58.954 46.854 58.579 47.019 58.279 47.349C57.989 47.679 57.844 48.104 57.844 48.624V52.989H55.804V45.294H57.799ZM70.5765 52.059C69.8265 52.829 68.8615 53.214 67.6815 53.214C66.5015 53.214 65.5365 52.829 64.7865 52.059C64.0365 51.279 63.6615 50.309 63.6615 49.149C63.6615 47.989 64.0365 47.024 64.7865 46.254C65.5365 45.474 66.5015 45.084 67.6815 45.084C68.8615 45.084 69.8265 45.474 70.5765 46.254C71.3265 47.024 71.7015 47.989 71.7015 49.149C71.7015 50.309 71.3265 51.279 70.5765 52.059ZM67.6815 51.654C68.2915 51.654 68.7665 51.429 69.1065 50.979C69.4565 50.519 69.6315 49.909 69.6315 49.149C69.6315 48.389 69.4565 47.779 69.1065 47.319C68.7665 46.859 68.2915 46.629 67.6815 46.629C67.0615 46.629 66.5815 46.859 66.2415 47.319C65.9015 47.769 65.7315 48.379 65.7315 49.149C65.7315 49.909 65.9015 50.519 66.2415 50.979C66.5815 51.429 67.0615 51.654 67.6815 51.654ZM74.6447 45.294V46.344H74.6897C75.2197 45.504 75.9797 45.084 76.9697 45.084C77.7597 45.084 78.3997 45.354 78.8897 45.894C79.3797 46.424 79.6247 47.114 79.6247 47.964V52.989H77.5847V48.264C77.5847 47.844 77.4647 47.504 77.2247 47.244C76.9947 46.984 76.6697 46.854 76.2497 46.854C75.7997 46.854 75.4247 47.019 75.1247 47.349C74.8347 47.679 74.6897 48.104 74.6897 48.624V52.989H72.6497V45.294H74.6447ZM80.9007 55.509V53.904H81.6207C82.3807 53.904 82.7607 53.554 82.7607 52.854C82.7607 52.514 82.5657 51.819 82.1757 50.769L80.1057 45.294H82.2507L83.3907 48.759L83.8857 50.439H83.9157C84.0557 49.789 84.2057 49.229 84.3657 48.759L85.4457 45.294H87.5007L84.8157 53.184C84.5157 54.064 84.1757 54.669 83.7957 54.999C83.4257 55.339 82.8607 55.509 82.1007 55.509H80.9007ZM88.1917 52.989V45.294H90.1567V46.329H90.2017C90.6917 45.499 91.4367 45.084 92.4367 45.084C92.9167 45.084 93.3417 45.209 93.7117 45.459C94.0917 45.699 94.3767 46.024 94.5667 46.434H94.5967C95.1567 45.534 95.9267 45.084 96.9067 45.084C97.7067 45.084 98.3267 45.329 98.7667 45.819C99.2167 46.299 99.4417 46.964 99.4417 47.814V52.989H97.4017V48.159C97.4017 47.279 97.0067 46.839 96.2167 46.839C95.7867 46.839 95.4467 46.994 95.1967 47.304C94.9567 47.604 94.8367 48.009 94.8367 48.519V52.989H92.7967V48.159C92.7967 47.279 92.4017 46.839 91.6117 46.839C91.2017 46.839 90.8667 46.994 90.6067 47.304C90.3567 47.604 90.2317 48.009 90.2317 48.519V52.989H88.1917Z" fill="#8E8E93"/>
</svg>
